<svg xmlns="http://www.w3.org/2000/svg" viewBox="0 0 64 64" role="img" aria-label="spiflash">
  <!-- An 8-pin SOIC flash chip, pin 1 marked. -->
  <g fill="#94a3b8">
    <rect x="4" y="15" width="10" height="4" rx="1"/>
    <rect x="4" y="25" width="10" height="4" rx="1"/>
    <rect x="4" y="35" width="10" height="4" rx="1"/>
    <rect x="4" y="45" width="10" height="4" rx="1"/>
    <rect x="50" y="15" width="10" height="4" rx="1"/>
    <rect x="50" y="25" width="10" height="4" rx="1"/>
    <rect x="50" y="35" width="10" height="4" rx="1"/>
    <rect x="50" y="45" width="10" height="4" rx="1"/>
  </g>
  <rect x="12" y="8" width="40" height="48" rx="5" fill="#0f766e"/>
  <circle cx="20" cy="16" r="3" fill="#5eead4"/>
  <path d="M34 20 L26 34 H32 L29 46 L39 30 H33 L36 20 Z" fill="#f0fdfa"/>
</svg>
